<svg width="82" height="89" viewBox="0 0 82 89" fill="none" xmlns="http://www.w3.org/2000/svg">
  <path fill-rule="evenodd" clip-rule="evenodd" d="M41 70C57.5685 70 71 56.5685 71 40C71 23.4315 57.5685 10 41 10C24.4315 10 11 23.4315 11 40C11 56.5685 24.4315 70 41 70Z" fill="#2196F3"/>
  <path d="M69 40C69 55.464 56.464 68 41 68C25.536 68 13 55.464 13 40C13 24.536 25.536 12 41 12C56.464 12 69 24.536 69 40Z" stroke="#42A5F5" stroke-width="4"/>
  <mask id="mask0_1_179" style="mask-type:luminance" maskUnits="userSpaceOnUse" x="11" y="10" width="60" height="60">
    <path fill-rule="evenodd" clip-rule="evenodd" d="M41 70C57.5685 70 71 56.5685 71 40C71 23.4315 57.5685 10 41 10C24.4315 10 11 23.4315 11 40C11 56.5685 24.4315 70 41 70Z" fill="white"/>
  </mask>
  <g mask="url(#mask0_1_179)">
    <path d="M13.714 32.875H67.536" stroke="#42A5F5" stroke-width="4" stroke-linecap="square"/>
    <path d="M13.714 48.625H67.536" stroke="#42A5F5" stroke-width="4" stroke-linecap="square"/>
    <path d="M40.25 14.5C40.25 14.5 30.2878 26.0775 30.5035 40.75C30.7191 55.4225 40.25 65.5 40.25 65.5" stroke="#42A5F5" stroke-width="4" stroke-linecap="round" stroke-linejoin="round"/>
    <path d="M41 14.5C41 14.5 50.9622 26.0775 50.7465 40.75C50.5309 55.4225 41 65.5 41 65.5" stroke="#42A5F5" stroke-width="4" stroke-linecap="round" stroke-linejoin="round"/>
  </g>
  <path fill-rule="evenodd" clip-rule="evenodd" d="M51.1946 29.0278C51.3946 28.9123 51.6151 28.8406 51.8456 28.8261C52.8621 28.7621 55.798 28.678 56.4347 29.7809C57.0715 30.8838 55.5298 33.3837 54.966 34.2314C54.8383 34.4235 54.666 34.5784 54.4662 34.6938L48.3904 38.2016L49.2343 55.302C49.2461 55.5414 49.125 55.7679 48.9193 55.8911L47.67 56.6393C47.5055 56.7379 47.3057 56.7586 47.1244 56.696L46.1776 56.369C46.019 56.3143 45.8877 56.2002 45.8114 56.0508L39.3534 43.4192L32.9843 47.0964L32.2974 51.7678C32.2498 52.0912 31.9693 52.3288 31.6426 52.3226L31.1446 52.3132C30.8927 52.3084 30.6663 52.1583 30.5638 51.9282L28.7741 47.9122C27.5439 47.9515 26.3891 47.8306 26.0792 47.294C25.7697 46.7579 26.2429 45.7021 26.893 44.6611L24.3295 41.1301C24.1815 40.9263 24.1648 40.6552 24.2866 40.4347L24.5274 39.9987C24.6854 39.7126 25.0314 39.5886 25.3352 39.709L29.6974 41.4392L36.0779 37.7555L28.4192 25.9267C28.328 25.7858 28.2948 25.6152 28.3267 25.4504L28.517 24.4669C28.5534 24.2786 28.6712 24.116 28.8389 24.0228L30.1115 23.315C30.321 23.1984 30.5777 23.2068 30.7791 23.3368L45.0768 32.5599L51.1946 29.0278Z" fill="white"/>
</svg>